<svg xmlns="http://www.w3.org/2000/svg" width="130" height="40" viewBox="0 0 130 40">
  <defs>
    <linearGradient id="g" x1="0%" y1="0%" x2="100%" y2="100%">
      <stop offset="0%" style="stop-color:rgba(255,255,255,0.25);stop-opacity:1" />
      <stop offset="50%" style="stop-color:rgba(255,255,255,0.10);stop-opacity:1" />
      <stop offset="100%" style="stop-color:rgba(255,255,255,0.05);stop-opacity:1" />
    </linearGradient>
    <linearGradient id="h" x1="0%" y1="0%" x2="0%" y2="100%">
      <stop offset="0%" style="stop-color:rgba(255,255,255,0.50);stop-opacity:1" />
      <stop offset="100%" style="stop-color:rgba(255,255,255,0);stop-opacity:1" />
    </linearGradient>
    <filter id="shadow">
      <feDropShadow dx="0" dy="2" stdDeviation="4" flood-color="rgba(0,0,0,0.15)" />
    </filter>
  </defs>
  <rect x="1" y="1" width="128" height="38" rx="12" fill="url(#g)" stroke="rgba(255,255,255,0.4)" stroke-width="1.5" filter="url(#shadow)" />
  <rect x="1" y="1" width="128" height="19" rx="12" fill="url(#h)" />
  <rect x="1" y="12" width="128" height="8" fill="url(#h)" />
  <g transform="translate(10, 10)" fill="white">
    <path d="M254.3 235.5L148 9.7A17.1 17.1 0 00133.5 0a16.9 16.9 0 00-15.5 8.1L2.6 194.8a17.5 17.5 0 00-.2 18.8 17.5 17.5 0 0016.6 8.7h.1l103.6 13.2 143.6 21.8a16.8 16.8 0 0011.3-3.7 16.9 16.9 0 005.3-10.5 16.9 16.9 0 00-4-13.6zM218.9 210.2L115.6 184.5a3.3 3.3 0 01-2.4-3.6l19.8-126.6a3.2 3.2 0 016-1.1l83.9 153.6a3.2 3.2 0 01-2 4.4z" />
  </g>
  <text x="46" y="25" font-family="system-ui, sans-serif" font-size="13" font-weight="600" fill="white" opacity="0.95">Prisma</text>
</svg>
